<?xml version="1.0" encoding="utf-8"?>
<svg xmlns="http://www.w3.org/2000/svg" viewBox="0 0 24 24" width="20" height="20">
  <path d="M22,12c0-1.039-0.464-1.964-1.186-2.605c-0.64-3.143-3.059-5.575-6.215-6.216C13.958,2.461,13.036,2,12,2 C6.486,2,2,6.486,2,12c0,1.016,0.155,1.997,0.438,2.921c0.001,0.001,0,0.003,0.001,0.004C3.693,19.016,7.504,22,12,22 c0.067,0,0.131-0.009,0.198-0.01C12.216,21.991,12.232,22,12.25,22c0.031,0,0.059-0.015,0.089-0.017C17.696,21.802,22,17.399,22,12 z M4.896,9.394c-0.285,0.323-0.527,0.664-0.736,1.014C4.901,6.757,8.134,4,12,4c0.828,0,1.5,0.671,1.5,1.5S12.828,7,12,7 c-0.228,0-0.882,0-1,0C8.352,7,6.299,7.806,4.896,9.394z M14.07,17.614c-0.863,1.019-2.324,1.734-4.155,2.101 c-2.117-0.573-3.889-1.993-4.927-3.872c-0.032-0.34-0.256-3.251,1.415-5.134c0.313-0.352,0.695-0.631,1.111-0.875 C7.195,10.492,7,11.221,7,12c0,2.757,2.243,5,5,5c1.085,0,2.083-0.356,2.903-0.946C14.728,16.638,14.454,17.161,14.07,17.614z M12,15c-1.654,0-3-1.346-3-3c0-1.654,1.346-3,3-3c1.908,0,3.459-1.537,3.494-3.437c1.297,0.601,2.348,1.648,2.948,2.943 C16.539,8.538,15,10.09,15,12C15,13.654,13.654,15,12,15z M15.201,19.327c0.138-0.136,0.271-0.274,0.395-0.42 C16.928,17.335,17,15,17,13c0-0.055,0-0.764,0-1c0-0.828,0.672-1.5,1.5-1.5S20,11.172,20,12C20,15.273,18.022,18.089,15.201,19.327 z" fill="gainsboro" />
</svg>